<svg width="19" height="19" viewBox="0 0 19 19" fill="none" xmlns="http://www.w3.org/2000/svg">
<path d="M13.5964 0H5.04644C2.26379 0 0 2.26379 0 5.04644V13.5965C0 16.379 2.26379 18.6428 5.04644 18.6428H13.5965C16.379 18.6428 18.6428 16.379 18.6428 13.5965V5.04644C18.6428 2.26379 16.379 0 13.5964 0V0ZM17.5499 13.5965C17.5499 15.7764 15.7764 17.5499 13.5964 17.5499H5.04644C2.86643 17.5499 1.09292 15.7764 1.09292 13.5965V5.04644C1.09292 2.86643 2.86643 1.09292 5.04644 1.09292H13.5965C15.7764 1.09292 17.5499 2.86643 17.5499 5.04644V13.5965Z" fill="#FBF5F5"/>
</svg>
